<svg xmlns="http://www.w3.org/2000/svg"  viewBox="0 0 46.087 46.087" width="20" height="20"><path d="M44.6 7.162h-3.38v11.625h1.352v5.338h-2.568V6.487C40.004 2.904 37.1 0 33.517 0H12.162C8.58 0 5.675 2.904 5.675 6.487v17.3h-2.23V18.11h1.42V6.486h-3.38V18.11h1.42v6.22h2.77v12.704c0 2.454 1.366 4.593 3.38 5.694v3.358h5.675V43.52h16.083v2.567h5.678v-3.294c2.087-1.076 3.514-3.25 3.514-5.76v-12.37h3.11v-5.877H44.6V7.162zM15.407 1.35h15.136v3.516H15.407V1.35zm1.62 35.412H8.65V32.98h8.378v3.782zm20.274 0h-8.378V32.98h8.38v3.782zm0-12.164s-1.62 5.137-14.595 5.137c-12.976 0-14.328-5.137-14.328-5.137V6.756H37.3v17.842z" fill="#FFF"/></svg>